<svg width="104" height="109" viewBox="0 0 104 109" fill="none" xmlns="http://www.w3.org/2000/svg">
<path d="M39.6912 3.18002C47.322 -1.06001 56.6011 -1.06 64.2319 3.18003L90.9303 18.0149C98.9496 22.4708 103.923 30.9239 103.923 40.098V68.1148C103.923 77.2889 98.9496 85.7421 90.9303 90.198L64.2319 105.033C56.6011 109.273 47.322 109.273 39.6911 105.033L12.9928 90.198C4.97343 85.7421 0 77.289 0 68.1148V40.098C0 30.9239 4.97344 22.4708 12.9928 18.0149L39.6912 3.18002Z" fill="#5076FF"/>
<path d="M46.171 30.0742C49.7726 28.0742 54.1513 28.0742 57.7529 30.0742L70.3594 37.0744C74.1476 39.1779 76.4972 43.1702 76.4972 47.5032V60.7101C76.4972 65.0431 74.1476 69.0354 70.3594 71.1389L57.753 78.1391C54.1513 80.1391 49.7726 80.1391 46.171 78.1391L33.5646 71.1389C29.7764 69.0354 27.4268 65.0431 27.4268 60.7101V47.5032C27.4268 43.1702 29.7764 39.1779 33.5646 37.0744L46.171 30.0742Z" fill="#1D1D1D"/>
</svg>
