<?xml version="1.0" encoding="UTF-8"?>
<svg xmlns="http://www.w3.org/2000/svg" xmlns:xlink="http://www.w3.org/1999/xlink" width="0" height="0">
<symbol id="marker-white" width="14" height="14" viewBox="0 0 14 14" fill="none">
<path d="M2.00011 12L7.55566 7L2.00011 2" stroke="white" stroke-width="1.5" stroke-linecap="square"/>
<path d="M6.44444 12L12 7L6.44444 2" stroke="white" stroke-width="1.5" stroke-linecap="square"/>
</symbol>

<symbol id="marker-blue" width="14" height="14" viewBox="0 0 14 14" fill="none">
<path d="M2.00011 2L7.55566 7L2.00011 12" stroke="#5076FF" stroke-width="1.5" stroke-linecap="square"/>
<path d="M6.4442 2L11.9998 7L6.4442 12" stroke="#5076FF" stroke-width="1.5" stroke-linecap="square"/>
</symbol>

<symbol id="logo" width="41" height="48" viewBox="0 0 41 48" fill="none">
<path d="M16.8249 2.83218C19.2155 1.50385 22.1225 1.50386 24.5131 2.83219L32.8773 7.47968C35.3896 8.87564 36.9477 11.5239 36.9477 14.3979V23.1751C36.9477 26.0492 35.3896 28.6974 32.8773 30.0934L24.5131 34.7409C22.1225 36.0692 19.2155 36.0692 16.8249 34.7409L8.46079 30.0934C5.94847 28.6974 4.39038 26.0492 4.39038 23.1751V14.3979C4.39038 11.5239 5.94848 8.87564 8.46079 7.47968L16.8249 2.83218Z" fill="#5076FF"/>
<path d="M18.8554 11.259C19.9837 10.6324 21.3555 10.6324 22.4838 11.259L26.4332 13.452C27.62 14.111 28.3561 15.3617 28.3561 16.7192V20.8567C28.3561 22.2142 27.62 23.4649 26.4332 24.1239L22.4838 26.3169C21.3555 26.9434 19.9837 26.9434 18.8554 26.3169L14.906 24.1239C13.7193 23.4649 12.9832 22.2142 12.9832 20.8567V16.7192C12.9832 15.3617 13.7193 14.111 14.906 13.452L18.8554 11.259Z" fill="white"/>
<path d="M6.09833 39.7716V47.0625H4.76688L1.59489 42.4736H1.54149V47.0625H0V39.7716H1.35281L4.49988 44.3569H4.56396V39.7716H6.09833Z" fill="#1D1D1D"/>
<path d="M8.68915 39.7716L10.4514 45.311H10.519L12.2848 39.7716H13.9936L11.4802 47.0625H9.49372L6.97677 39.7716H8.68915Z" fill="#1D1D1D"/>
<path d="M16.4126 39.7716V47.0625H14.8711V39.7716H16.4126Z" fill="#1D1D1D"/>
<path d="M21.6361 41.8684C21.6076 41.5812 21.4854 41.3581 21.2694 41.1991C21.0534 41.0401 20.7603 40.9606 20.3901 40.9606C20.1385 40.9606 19.9261 40.9962 19.7528 41.0674C19.5796 41.1362 19.4467 41.2324 19.3541 41.3558C19.2639 41.4792 19.2188 41.6192 19.2188 41.7759C19.2141 41.9064 19.2414 42.0203 19.3007 42.1176C19.3624 42.2149 19.4467 42.2992 19.5535 42.3704C19.6603 42.4392 19.7837 42.4997 19.9237 42.5519C20.0637 42.6018 20.2133 42.6445 20.3723 42.6801L21.0273 42.8367C21.3454 42.9079 21.6373 43.0029 21.9031 43.1215C22.1689 43.2402 22.3991 43.3862 22.5937 43.5594C22.7884 43.7327 22.9391 43.9368 23.0459 44.1718C23.155 44.4067 23.2108 44.6761 23.2132 44.9799C23.2108 45.4261 23.0969 45.8129 22.8714 46.1405C22.6483 46.4656 22.3256 46.7184 21.9031 46.8987C21.483 47.0767 20.9763 47.1657 20.383 47.1657C19.7944 47.1657 19.2817 47.0756 18.845 46.8952C18.4107 46.7148 18.0713 46.4478 17.8269 46.0942C17.5848 45.7382 17.4578 45.2979 17.4459 44.7734H18.9376C18.9542 45.0179 19.0242 45.222 19.1476 45.3857C19.2734 45.5471 19.4407 45.6693 19.6496 45.7524C19.8608 45.8331 20.0993 45.8735 20.3652 45.8735C20.6262 45.8735 20.8529 45.8355 21.0451 45.7595C21.2397 45.6836 21.3905 45.578 21.4973 45.4427C21.6041 45.3074 21.6575 45.152 21.6575 44.9763C21.6575 44.8126 21.6088 44.6749 21.5115 44.5634C21.4166 44.4518 21.2765 44.3569 21.0914 44.2786C20.9087 44.2002 20.6844 44.129 20.4186 44.065L19.6247 43.8656C19.01 43.7161 18.5246 43.4823 18.1686 43.1643C17.8126 42.8462 17.6358 42.4178 17.6382 41.8791C17.6358 41.4377 17.7533 41.052 17.9906 40.7221C18.2303 40.3922 18.559 40.1347 18.9768 39.9496C19.3945 39.7644 19.8691 39.6719 20.4008 39.6719C20.9419 39.6719 21.4142 39.7644 21.8177 39.9496C22.2235 40.1347 22.5392 40.3922 22.7646 40.7221C22.9901 41.052 23.1064 41.4341 23.1135 41.8684H21.6361Z" fill="#1D1D1D"/>
<path d="M25.7915 39.7716V47.0625H24.25V39.7716H25.7915Z" fill="#1D1D1D"/>
<path d="M33.7598 43.417C33.7598 44.2121 33.6091 44.8885 33.3077 45.4462C33.0086 46.004 32.6004 46.43 32.083 46.7243C31.568 47.0162 30.9889 47.1622 30.3457 47.1622C29.6978 47.1622 29.1163 47.015 28.6013 46.7207C28.0863 46.4264 27.6792 46.0004 27.3802 45.4427C27.0812 44.8849 26.9316 44.2097 26.9316 43.417C26.9316 42.622 27.0812 41.9455 27.3802 41.3878C27.6792 40.8301 28.0863 40.4052 28.6013 40.1133C29.1163 39.819 29.6978 39.6719 30.3457 39.6719C30.9889 39.6719 31.568 39.819 32.083 40.1133C32.6004 40.4052 33.0086 40.8301 33.3077 41.3878C33.6091 41.9455 33.7598 42.622 33.7598 43.417ZM32.1969 43.417C32.1969 42.902 32.1198 42.4677 31.9655 42.1141C31.8136 41.7604 31.5988 41.4922 31.3212 41.3095C31.0435 41.1267 30.7183 41.0354 30.3457 41.0354C29.9731 41.0354 29.6479 41.1267 29.3703 41.3095C29.0926 41.4922 28.8766 41.7604 28.7223 42.1141C28.5704 42.4677 28.4945 42.902 28.4945 43.417C28.4945 43.932 28.5704 44.3664 28.7223 44.72C28.8766 45.0736 29.0926 45.3418 29.3703 45.5246C29.6479 45.7073 29.9731 45.7987 30.3457 45.7987C30.7183 45.7987 31.0435 45.7073 31.3212 45.5246C31.5988 45.3418 31.8136 45.0736 31.9655 44.72C32.1198 44.3664 32.1969 43.932 32.1969 43.417Z" fill="#1D1D1D"/>
<path d="M41 39.7716V47.0625H39.6685L36.4966 42.4736H36.4432V47.0625H34.9017V39.7716H36.2545L39.4015 44.3569H39.4656V39.7716H41Z" fill="#1D1D1D"/>
</symbol>

<symbol id="arrow" width="12" height="32" viewBox="0 0 12 32" fill="none">
<path d="M6.75 1C6.75 0.585786 6.41421 0.25 6 0.25C5.58579 0.25 5.25 0.585786 5.25 1H6.75ZM5.46967 31.5303C5.76256 31.8232 6.23744 31.8232 6.53033 31.5303L11.3033 26.7574C11.5962 26.4645 11.5962 25.9896 11.3033 25.6967C11.0104 25.4038 10.5355 25.4038 10.2426 25.6967L6 29.9393L1.75736 25.6967C1.46447 25.4038 0.989593 25.4038 0.696699 25.6967C0.403806 25.9896 0.403806 26.4645 0.696699 26.7574L5.46967 31.5303ZM5.25 1V31H6.75V1H5.25Z" fill="#102134"/>
</symbol>

<symbol id="burger" width="32" height="30" viewBox="0 0 32 30" fill="none">
<path fill-rule="evenodd" clip-rule="evenodd" d="M0 9.5C0 8.94772 0.447715 8.5 1 8.5H31C31.5523 8.5 32 8.94772 32 9.5C32 10.0523 31.5523 10.5 31 10.5H1C0.447715 10.5 0 10.0523 0 9.5Z" fill="#102134"/>
<path fill-rule="evenodd" clip-rule="evenodd" d="M0 20.5C0 19.9477 0.447715 19.5 1 19.5H31C31.5523 19.5 32 19.9477 32 20.5C32 21.0523 31.5523 21.5 31 21.5H1C0.447715 21.5 0 21.0523 0 20.5Z" fill="#102134"/>
</symbol>

<symbol id="close" width="32" height="30" viewBox="0 0 32 30" fill="none">
<path fill-rule="evenodd" clip-rule="evenodd" d="M3.9073 26.9493C3.51678 26.5588 3.51678 25.9256 3.9073 25.5351L26.5347 2.90766C26.9252 2.51714 27.5584 2.51714 27.9489 2.90766C28.3395 3.29819 28.3395 3.93135 27.9489 4.32188L5.32152 26.9493C4.93099 27.3398 4.29783 27.3398 3.9073 26.9493Z" fill="#102134"/>
<path fill-rule="evenodd" clip-rule="evenodd" d="M27.9491 26.9493C28.3397 26.5588 28.3397 25.9256 27.9491 25.5351L5.32173 2.90766C4.9312 2.51714 4.29804 2.51714 3.90751 2.90766C3.51699 3.29819 3.51699 3.93135 3.90751 4.32188L26.5349 26.9493C26.9255 27.3398 27.5586 27.3398 27.9491 26.9493Z" fill="#102134"/>
</symbol>

</svg>