<?xml version="1.0" encoding="UTF-8"?>
<svg xmlns="http://www.w3.org/2000/svg" xmlns:xlink="http://www.w3.org/1999/xlink" width="0" height="0">

<symbol id="camera"  viewBox="0 0 100 100" fill="none">
<path fill-rule="evenodd" clip-rule="evenodd" d="M27.5195 66.4321V36.0938H61.2043V66.4321H27.5195ZM25.5195 35.5223C25.5195 34.7333 26.1591 34.0938 26.9481 34.0938H61.7757C62.5647 34.0938 63.2043 34.7333 63.2043 35.5223V67.0036C63.2043 67.7925 62.5647 68.4321 61.7757 68.4321H26.9481C26.1591 68.4321 25.5195 67.7925 25.5195 67.0036V35.5223ZM67.437 43.376L78.081 39.1184C78.1146 39.1049 78.1349 39.1051 78.1488 39.1068C78.167 39.1091 78.1904 39.1166 78.2142 39.1327C78.2379 39.1488 78.2536 39.1677 78.2625 39.1838C78.2692 39.1961 78.2769 39.2148 78.2769 39.251V62.7804C78.2769 62.8166 78.2692 62.8353 78.2625 62.8476C78.2536 62.8637 78.2379 62.8826 78.2142 62.8987C78.1904 62.9148 78.167 62.9223 78.1488 62.9246C78.1349 62.9263 78.1146 62.9265 78.081 62.913L67.437 58.6554C67.3827 58.6337 67.3472 58.5812 67.3472 58.5228V43.5086C67.3472 43.4502 67.3827 43.3977 67.437 43.376ZM65.3472 43.5086C65.3472 42.6324 65.8806 41.8445 66.6942 41.519L77.3382 37.2614C78.7458 36.6984 80.2769 37.735 80.2769 39.251V62.7804C80.2769 64.2964 78.7458 65.333 77.3382 64.77L66.6942 60.5124C65.8806 60.1869 65.3472 59.399 65.3472 58.5228V43.5086Z" fill="#5076FF"/>
<path fill-rule="evenodd" clip-rule="evenodd" d="M97.6111 50.9987L96.6113 50.9781C96.618 50.6522 96.6214 50.3255 96.6214 49.998C96.6214 49.6704 96.618 49.3437 96.6113 49.0178L97.6111 48.9972C97.6179 49.33 97.6214 49.6636 97.6214 49.998C97.6214 50.3324 97.6179 50.6659 97.6111 50.9987ZM97.4567 46.0098L96.4602 46.0924C96.4062 45.441 96.3388 44.7934 96.2582 44.1499L97.2505 44.0258C97.3327 44.683 97.4016 45.3445 97.4567 46.0098ZM96.786 41.0709L95.8035 41.2572C95.6818 40.6156 95.547 39.9787 95.3993 39.3468L96.3731 39.1192C96.5239 39.7648 96.6617 40.4155 96.786 41.0709ZM95.6007 36.2297L94.6432 36.5184C94.4549 35.8937 94.2537 35.2744 94.0401 34.661L94.9845 34.3322C95.2027 34.9588 95.4082 35.5915 95.6007 36.2297ZM93.9121 31.5403L92.9904 31.9282C92.7374 31.3271 92.4722 30.7324 92.195 30.1444L93.0995 29.718C93.3827 30.3187 93.6536 30.9262 93.9121 31.5403ZM91.7393 27.0535L90.8634 27.5361C90.5489 26.9653 90.2229 26.4018 89.8855 25.846L90.7404 25.3272C91.085 25.8949 91.4181 26.4705 91.7393 27.0535ZM89.1084 22.8191L88.2878 23.3906C87.9156 22.856 87.5324 22.3295 87.1387 21.8116L87.9347 21.2064C88.3369 21.7354 88.7282 22.2731 89.1084 22.8191ZM86.0505 18.8824L85.2938 19.5361C84.8681 19.0434 84.4322 18.5596 83.9865 18.0852L84.7153 17.4005C85.1705 17.885 85.6157 18.3791 86.0505 18.8824ZM82.5998 15.285L81.9151 16.0138C81.4407 15.5681 80.9569 15.1322 80.4642 14.7065L81.1179 13.9498C81.6212 14.3846 82.1153 14.8298 82.5998 15.285ZM78.7939 12.0656C78.2649 11.6634 77.7272 11.2721 77.1812 10.8919L76.6097 11.7125C77.1443 12.0847 77.6707 12.4679 78.1887 12.8616L78.7939 12.0656ZM74.6731 9.25987L74.1543 10.1148C73.5984 9.7774 73.035 9.45135 72.4642 9.13692L72.9468 8.26104C73.5298 8.58223 74.1053 8.91528 74.6731 9.25987ZM70.2823 6.90076L69.8559 7.8053C69.2679 7.52813 68.6732 7.2629 68.0721 7.00991L68.46 6.08821C69.0741 6.34666 69.6816 6.61762 70.2823 6.90076ZM65.6681 5.01581L65.3393 5.96019C64.7259 5.74659 64.1066 5.54544 63.4818 5.35705L63.7705 4.39963C64.4088 4.59209 65.0415 4.79759 65.6681 5.01581ZM60.8811 3.62723L60.6535 4.60099C60.0216 4.45331 59.3846 4.31847 58.743 4.19679L58.9294 3.2143C59.5848 3.33861 60.2355 3.47635 60.8811 3.62723ZM55.9745 2.74979L55.8503 3.74205C55.2069 3.66154 54.5593 3.59414 53.9079 3.54013L53.9905 2.54355C54.6558 2.59871 55.3172 2.66755 55.9745 2.74979ZM51.0031 2.38921L50.9825 3.389C50.6566 3.38228 50.3299 3.37891 50.0023 3.37891C49.6748 3.37891 49.3481 3.38228 49.0222 3.389L49.0016 2.38921C49.3344 2.38235 49.6679 2.37891 50.0023 2.37891C50.3367 2.37891 50.6703 2.38235 51.0031 2.38921ZM46.0142 2.54355L46.0968 3.54013C45.4454 3.59414 44.7978 3.66154 44.1543 3.74206L44.0302 2.74979C44.6874 2.66756 45.3489 2.59871 46.0142 2.54355ZM41.0753 3.21431L41.2616 4.19679C40.62 4.31848 39.9831 4.45331 39.3511 4.60099L39.1236 3.62723C39.7692 3.47636 40.4199 3.33862 41.0753 3.21431ZM36.2341 4.39963L36.5228 5.35705C35.8981 5.54544 35.2788 5.74659 34.6654 5.9602L34.3366 5.01582C34.9632 4.79759 35.5959 4.5921 36.2341 4.39963ZM31.5447 6.08822L31.9326 7.00992C31.3315 7.2629 30.7368 7.52814 30.1488 7.80531L29.7224 6.90076C30.323 6.61762 30.9306 6.34667 31.5447 6.08822ZM27.0579 8.26105L27.5404 9.13693C26.9697 9.45136 26.4062 9.77741 25.8504 10.1148L25.3315 9.25988C25.8993 8.91529 26.4749 8.58224 27.0579 8.26105ZM22.8235 10.8919L23.3949 11.7125C22.8604 12.0848 22.3339 12.4679 21.816 12.8616L21.2108 12.0656C21.7398 11.6634 22.2775 11.2721 22.8235 10.8919ZM18.8868 13.9498L19.5405 14.7065C19.0477 15.1322 18.564 15.5681 18.0895 16.0138L17.4049 15.285C17.8894 14.8298 18.3835 14.3846 18.8868 13.9498ZM15.2894 17.4005L16.0182 18.0852C15.5725 18.5596 15.1366 19.0434 14.7109 19.5361L13.9542 18.8824C14.389 18.3791 14.8342 17.885 15.2894 17.4005ZM12.0699 21.2064L12.866 21.8116C12.4723 22.3296 12.0891 22.856 11.7169 23.3906L10.8962 22.8191C11.2764 22.2731 11.6678 21.7354 12.0699 21.2064ZM9.26426 25.3272L10.1191 25.846C9.78179 26.4019 9.45574 26.9653 9.14131 27.5361L8.26543 27.0535C8.58662 26.4705 8.91968 25.895 9.26426 25.3272ZM6.90515 29.718L7.80969 30.1444C7.53252 30.7324 7.26729 31.3271 7.0143 31.9282L6.0926 31.5403C6.35105 30.9262 6.62201 30.3187 6.90515 29.718ZM5.0202 34.3322L5.96458 34.661C5.75098 35.2745 5.54983 35.8937 5.36144 36.5185L4.40402 36.2298C4.59648 35.5915 4.80198 34.9589 5.0202 34.3322ZM3.63162 39.1192L4.60538 39.3468C4.4577 39.9787 4.32287 40.6157 4.20118 41.2573L3.2187 41.0709C3.34301 40.4155 3.48074 39.7648 3.63162 39.1192ZM2.75419 44.0258L3.74645 44.15C3.66594 44.7934 3.59853 45.441 3.54452 46.0924L2.54794 46.0098C2.60311 45.3445 2.67195 44.6831 2.75419 44.0258ZM2.39361 48.9972C2.38675 49.33 2.3833 49.6636 2.3833 49.998C2.3833 50.3324 2.38675 50.666 2.39361 50.9987L3.3934 50.9781C3.38668 50.6522 3.3833 50.3255 3.3833 49.998C3.3833 49.6704 3.38668 49.3437 3.3934 49.0178L2.39361 48.9972ZM2.54794 53.9862L3.54452 53.9035C3.59854 54.5549 3.66594 55.2025 3.74645 55.846L2.75419 55.9701C2.67195 55.3129 2.60311 54.6515 2.54794 53.9862ZM3.2187 58.925L4.20119 58.7387C4.32287 59.3803 4.4577 60.0172 4.60539 60.6492L3.63162 60.8767C3.48075 60.2311 3.34301 59.5804 3.2187 58.925ZM4.40403 63.7662L5.36145 63.4775C5.54984 64.1022 5.75098 64.7215 5.96459 65.3349L5.02021 65.6637C4.80199 65.0371 4.59649 64.4044 4.40403 63.7662ZM6.09261 68.4556L7.01431 68.0677C7.2673 68.6688 7.53253 69.2635 7.8097 69.8515L6.90516 70.2779C6.62201 69.6773 6.35106 69.0697 6.09261 68.4556ZM8.26544 72.9424L9.14132 72.4599C9.45575 73.0306 9.7818 73.5941 10.1191 74.1499L9.26427 74.6688C8.91968 74.101 8.58663 73.5254 8.26544 72.9424ZM10.8963 77.1768L11.7169 76.6054C12.0891 77.1399 12.4723 77.6664 12.866 78.1843L12.0699 78.7895C11.6678 78.2605 11.2765 77.7228 10.8963 77.1768ZM13.9542 81.1135L14.7109 80.4598C15.1366 80.9526 15.5725 81.4363 16.0182 81.9108L15.2894 82.5954C14.8342 82.1109 14.389 81.6168 13.9542 81.1135ZM17.4049 84.711L18.0896 83.9821C18.564 84.4278 19.0478 84.8637 19.5405 85.2894L18.8868 86.0461C18.3835 85.6113 17.8894 85.1662 17.4049 84.711ZM21.2108 87.9304L21.816 87.1343C22.3339 87.528 22.8604 87.9112 23.395 88.2834L22.8235 89.1041C22.2775 88.7239 21.7398 88.3325 21.2108 87.9304ZM25.3316 90.736L25.8504 89.8812C26.4062 90.2185 26.9697 90.5446 27.5405 90.859L27.0579 91.7349C26.4749 91.4137 25.8993 91.0806 25.3316 90.736ZM29.7224 93.0952L30.1488 92.1906C30.7368 92.4678 31.3315 92.733 31.9326 92.986L31.5447 93.9077C30.9306 93.6493 30.3231 93.3783 29.7224 93.0952ZM34.3366 94.9801L34.6654 94.0357C35.2788 94.2493 35.8981 94.4505 36.5228 94.6389L36.2341 95.5963C35.5959 95.4038 34.9632 95.1983 34.3366 94.9801ZM39.1236 96.3687L39.3512 95.3949C39.9831 95.5426 40.6201 95.6774 41.2617 95.7991L41.0753 96.7816C40.4199 96.6573 39.7692 96.5196 39.1236 96.3687ZM44.0302 97.2461L44.1543 96.2539C44.7978 96.3344 45.4454 96.4018 46.0968 96.4558L46.0142 97.4524C45.3489 97.3972 44.6874 97.3284 44.0302 97.2461ZM49.0016 97.6067L49.0222 96.6069C49.3481 96.6136 49.6748 96.617 50.0023 96.617C50.3299 96.617 50.6566 96.6136 50.9825 96.6069L51.0031 97.6067C50.6703 97.6136 50.3367 97.617 50.0023 97.617C49.668 97.617 49.3344 97.6136 49.0016 97.6067ZM53.9905 97.4524L53.9079 96.4558C54.5593 96.4018 55.2069 96.3344 55.8504 96.2539L55.9745 97.2461C55.3173 97.3284 54.6558 97.3972 53.9905 97.4524ZM58.9294 96.7816L58.7431 95.7991C59.3847 95.6774 60.0216 95.5426 60.6536 95.3949L60.8811 96.3687C60.2355 96.5196 59.5848 96.6573 58.9294 96.7816ZM63.7706 95.5963L63.4819 94.6389C64.1066 94.4505 64.7259 94.2493 65.3393 94.0357L65.6681 94.9801C65.0415 95.1983 64.4088 95.4038 63.7706 95.5963ZM68.46 93.9077L68.0721 92.986C68.6732 92.733 69.2679 92.4678 69.8559 92.1906L70.2823 93.0952C69.6816 93.3783 69.0741 93.6493 68.46 93.9077ZM72.9468 91.7349L72.4642 90.859C73.035 90.5446 73.5985 90.2185 74.1543 89.8812L74.6731 90.736C74.1054 91.0806 73.5298 91.4137 72.9468 91.7349ZM77.1812 89.104L76.6097 88.2834C77.1443 87.9112 77.6708 87.528 78.1887 87.1343L78.7939 87.9304C78.2649 88.3325 77.7272 88.7239 77.1812 89.104ZM81.1179 86.0461L80.4642 85.2894C80.9569 84.8637 81.4407 84.4278 81.9151 83.9821L82.5998 84.711C82.1153 85.1661 81.6212 85.6113 81.1179 86.0461ZM84.7153 82.5954L83.9865 81.9108C84.4322 81.4363 84.8681 80.9526 85.2938 80.4598L86.0505 81.1135C85.6157 81.6168 85.1705 82.1109 84.7153 82.5954ZM87.9348 78.7895L87.1387 78.1843C87.5324 77.6664 87.9156 77.1399 88.2878 76.6053L89.1084 77.1768C88.7282 77.7228 88.3369 78.2605 87.9348 78.7895ZM90.7404 74.6688L89.8855 74.1499C90.2229 73.5941 90.549 73.0306 90.8634 72.4598L91.7393 72.9424C91.4181 73.5254 91.085 74.101 90.7404 74.6688ZM93.0995 70.2779L92.195 69.8515C92.4722 69.2635 92.7374 68.6688 92.9904 68.0677L93.9121 68.4556C93.6536 69.0697 93.3827 69.6772 93.0995 70.2779ZM94.9845 65.6637L94.0401 65.3349C94.2537 64.7215 94.4549 64.1022 94.6432 63.4775L95.6007 63.7662C95.4082 64.4044 95.2027 65.0371 94.9845 65.6637ZM96.3731 60.8767L95.3993 60.6491C95.547 60.0172 95.6818 59.3803 95.8035 58.7387L96.786 58.925C96.6617 59.5804 96.5239 60.2311 96.3731 60.8767ZM97.2505 55.9701L96.2582 55.846C96.3388 55.2025 96.4062 54.5549 96.4602 53.9035L97.4567 53.9861C97.4016 54.6514 97.3327 55.3129 97.2505 55.9701Z" fill="#5076FF"/>
</symbol>

<symbol id="cloud"  viewBox="0 0 100 100" fill="none">
<path fill-rule="evenodd" clip-rule="evenodd" d="M41.4319 35.0006C43.1574 28.2402 49.3538 23.2248 56.7443 23.2248C65.4767 23.2248 72.5353 30.2227 72.5353 38.8301C72.5353 40.3818 72.3065 41.8788 71.881 43.291L71.5626 44.3478L72.6271 44.6395C76.6778 45.7495 79.6374 49.4179 79.6374 53.7557C79.6374 58.4709 76.4614 62.5327 71.7605 63.2151H63.8463V65.3677H71.8361H71.9097L71.9827 65.3576C77.8958 64.5447 81.7899 59.4577 81.7899 53.7557C81.7899 48.7836 78.6366 44.5524 74.2156 42.8937C74.5246 41.5878 74.6879 40.2273 74.6879 38.8301C74.6879 29.0115 66.643 21.0723 56.7443 21.0723C48.7241 21.0723 41.9254 26.2813 39.6298 33.4795C39.1311 33.4034 38.6206 33.3639 38.1014 33.3639C32.9662 33.3639 28.7232 37.2204 28.2015 42.1872C22.2115 42.6998 17.4945 47.6735 17.4945 53.7557C17.4945 60.18 22.7572 65.3677 29.2238 65.3677H36.3259V63.2151H29.2238C23.9235 63.2151 19.6471 58.9688 19.6471 53.7557C19.6471 48.5426 23.9235 44.2962 29.2238 44.2962H30.3001V43.22C30.3001 38.9767 33.7816 35.5165 38.1014 35.5165C38.7992 35.5165 39.474 35.6067 40.1153 35.7753L41.1638 36.0511L41.4319 35.0006ZM52.0356 74.4962C52.0356 75.0906 51.5538 75.5725 50.9593 75.5725C50.3649 75.5725 49.8831 75.0906 49.8831 74.4962V54.4465L44.7517 59.5778C44.3314 59.9981 43.65 59.9981 43.2297 59.5778C42.8094 59.1575 42.8094 58.476 43.2297 58.0557L50.1983 51.0871L50.9593 50.326L51.7204 51.0871L58.689 58.0557C59.1093 58.476 59.1093 59.1575 58.689 59.5778C58.2687 59.9981 57.5873 59.9981 57.1669 59.5778L52.0356 54.4465V74.4962Z" fill="#5076FF"/>
<path fill-rule="evenodd" clip-rule="evenodd" d="M97.6111 50.9987L96.6113 50.9781C96.618 50.6522 96.6214 50.3255 96.6214 49.998C96.6214 49.6704 96.618 49.3437 96.6113 49.0178L97.6111 48.9972C97.6179 49.33 97.6214 49.6636 97.6214 49.998C97.6214 50.3324 97.6179 50.6659 97.6111 50.9987ZM97.4567 46.0098L96.4602 46.0924C96.4062 45.441 96.3388 44.7934 96.2582 44.1499L97.2505 44.0258C97.3327 44.683 97.4016 45.3445 97.4567 46.0098ZM96.786 41.0709L95.8035 41.2572C95.6818 40.6156 95.547 39.9787 95.3993 39.3468L96.3731 39.1192C96.5239 39.7648 96.6617 40.4155 96.786 41.0709ZM95.6007 36.2297L94.6432 36.5184C94.4549 35.8937 94.2537 35.2744 94.0401 34.661L94.9845 34.3322C95.2027 34.9588 95.4082 35.5915 95.6007 36.2297ZM93.9121 31.5403L92.9904 31.9282C92.7374 31.3271 92.4722 30.7324 92.195 30.1444L93.0995 29.718C93.3827 30.3187 93.6536 30.9262 93.9121 31.5403ZM91.7393 27.0535L90.8634 27.5361C90.5489 26.9653 90.2229 26.4018 89.8855 25.846L90.7404 25.3272C91.085 25.8949 91.4181 26.4705 91.7393 27.0535ZM89.1084 22.8191L88.2878 23.3906C87.9156 22.856 87.5324 22.3295 87.1387 21.8116L87.9347 21.2064C88.3369 21.7354 88.7282 22.2731 89.1084 22.8191ZM86.0505 18.8824L85.2938 19.5361C84.8681 19.0434 84.4322 18.5596 83.9865 18.0852L84.7153 17.4005C85.1705 17.885 85.6157 18.3791 86.0505 18.8824ZM82.5998 15.285L81.9151 16.0138C81.4407 15.5681 80.9569 15.1322 80.4642 14.7065L81.1179 13.9498C81.6212 14.3846 82.1153 14.8298 82.5998 15.285ZM78.7939 12.0656C78.2649 11.6634 77.7272 11.2721 77.1812 10.8919L76.6097 11.7125C77.1443 12.0847 77.6707 12.4679 78.1887 12.8616L78.7939 12.0656ZM74.6731 9.25987L74.1543 10.1148C73.5984 9.7774 73.035 9.45135 72.4642 9.13692L72.9468 8.26104C73.5298 8.58223 74.1053 8.91528 74.6731 9.25987ZM70.2823 6.90076L69.8559 7.8053C69.2679 7.52813 68.6732 7.2629 68.0721 7.00991L68.46 6.08821C69.0741 6.34666 69.6816 6.61762 70.2823 6.90076ZM65.6681 5.01581L65.3393 5.96019C64.7259 5.74659 64.1066 5.54544 63.4818 5.35705L63.7705 4.39963C64.4088 4.59209 65.0415 4.79759 65.6681 5.01581ZM60.8811 3.62723L60.6535 4.60099C60.0216 4.45331 59.3846 4.31847 58.743 4.19679L58.9294 3.2143C59.5848 3.33861 60.2355 3.47635 60.8811 3.62723ZM55.9745 2.74979L55.8503 3.74205C55.2069 3.66154 54.5593 3.59414 53.9079 3.54013L53.9905 2.54355C54.6558 2.59871 55.3172 2.66755 55.9745 2.74979ZM51.0031 2.38921L50.9825 3.389C50.6566 3.38228 50.3299 3.37891 50.0023 3.37891C49.6748 3.37891 49.3481 3.38228 49.0222 3.389L49.0016 2.38921C49.3344 2.38235 49.6679 2.37891 50.0023 2.37891C50.3367 2.37891 50.6703 2.38235 51.0031 2.38921ZM46.0142 2.54355L46.0968 3.54013C45.4454 3.59414 44.7978 3.66154 44.1543 3.74206L44.0302 2.74979C44.6874 2.66756 45.3489 2.59871 46.0142 2.54355ZM41.0753 3.21431L41.2616 4.19679C40.62 4.31848 39.9831 4.45331 39.3511 4.60099L39.1236 3.62723C39.7692 3.47636 40.4199 3.33862 41.0753 3.21431ZM36.2341 4.39963L36.5228 5.35705C35.8981 5.54544 35.2788 5.74659 34.6654 5.9602L34.3366 5.01582C34.9632 4.79759 35.5959 4.5921 36.2341 4.39963ZM31.5447 6.08822L31.9326 7.00992C31.3315 7.2629 30.7368 7.52814 30.1488 7.80531L29.7224 6.90076C30.323 6.61762 30.9306 6.34667 31.5447 6.08822ZM27.0579 8.26105L27.5404 9.13693C26.9697 9.45136 26.4062 9.77741 25.8504 10.1148L25.3315 9.25988C25.8993 8.91529 26.4749 8.58224 27.0579 8.26105ZM22.8235 10.8919L23.3949 11.7125C22.8604 12.0848 22.3339 12.4679 21.816 12.8616L21.2108 12.0656C21.7398 11.6634 22.2775 11.2721 22.8235 10.8919ZM18.8868 13.9498L19.5405 14.7065C19.0477 15.1322 18.564 15.5681 18.0895 16.0138L17.4049 15.285C17.8894 14.8298 18.3835 14.3846 18.8868 13.9498ZM15.2894 17.4005L16.0182 18.0852C15.5725 18.5596 15.1366 19.0434 14.7109 19.5361L13.9542 18.8824C14.389 18.3791 14.8342 17.885 15.2894 17.4005ZM12.0699 21.2064L12.866 21.8116C12.4723 22.3296 12.0891 22.856 11.7169 23.3906L10.8962 22.8191C11.2764 22.2731 11.6678 21.7354 12.0699 21.2064ZM9.26426 25.3272L10.1191 25.846C9.78179 26.4019 9.45574 26.9653 9.14131 27.5361L8.26543 27.0535C8.58662 26.4705 8.91968 25.895 9.26426 25.3272ZM6.90515 29.718L7.80969 30.1444C7.53252 30.7324 7.26729 31.3271 7.0143 31.9282L6.0926 31.5403C6.35105 30.9262 6.62201 30.3187 6.90515 29.718ZM5.0202 34.3322L5.96458 34.661C5.75098 35.2745 5.54983 35.8937 5.36144 36.5185L4.40402 36.2298C4.59648 35.5915 4.80198 34.9589 5.0202 34.3322ZM3.63162 39.1192L4.60538 39.3468C4.4577 39.9787 4.32287 40.6157 4.20118 41.2573L3.2187 41.0709C3.34301 40.4155 3.48074 39.7648 3.63162 39.1192ZM2.75419 44.0258L3.74645 44.15C3.66594 44.7934 3.59853 45.441 3.54452 46.0924L2.54794 46.0098C2.60311 45.3445 2.67195 44.6831 2.75419 44.0258ZM2.39361 48.9972C2.38675 49.33 2.3833 49.6636 2.3833 49.998C2.3833 50.3324 2.38675 50.666 2.39361 50.9987L3.3934 50.9781C3.38668 50.6522 3.3833 50.3255 3.3833 49.998C3.3833 49.6704 3.38668 49.3437 3.3934 49.0178L2.39361 48.9972ZM2.54794 53.9862L3.54452 53.9035C3.59854 54.5549 3.66594 55.2025 3.74645 55.846L2.75419 55.9701C2.67195 55.3129 2.60311 54.6515 2.54794 53.9862ZM3.2187 58.925L4.20119 58.7387C4.32287 59.3803 4.4577 60.0172 4.60539 60.6492L3.63162 60.8767C3.48075 60.2311 3.34301 59.5804 3.2187 58.925ZM4.40403 63.7662L5.36145 63.4775C5.54984 64.1022 5.75098 64.7215 5.96459 65.3349L5.02021 65.6637C4.80199 65.0371 4.59649 64.4044 4.40403 63.7662ZM6.09261 68.4556L7.01431 68.0677C7.2673 68.6688 7.53253 69.2635 7.8097 69.8515L6.90516 70.2779C6.62201 69.6773 6.35106 69.0697 6.09261 68.4556ZM8.26544 72.9424L9.14132 72.4599C9.45575 73.0306 9.7818 73.5941 10.1191 74.1499L9.26427 74.6688C8.91968 74.101 8.58663 73.5254 8.26544 72.9424ZM10.8963 77.1768L11.7169 76.6054C12.0891 77.1399 12.4723 77.6664 12.866 78.1843L12.0699 78.7895C11.6678 78.2605 11.2765 77.7228 10.8963 77.1768ZM13.9542 81.1135L14.7109 80.4598C15.1366 80.9526 15.5725 81.4363 16.0182 81.9108L15.2894 82.5954C14.8342 82.1109 14.389 81.6168 13.9542 81.1135ZM17.4049 84.711L18.0896 83.9821C18.564 84.4278 19.0478 84.8637 19.5405 85.2894L18.8868 86.0461C18.3835 85.6113 17.8894 85.1662 17.4049 84.711ZM21.2108 87.9304L21.816 87.1343C22.3339 87.528 22.8604 87.9112 23.395 88.2834L22.8235 89.1041C22.2775 88.7239 21.7398 88.3325 21.2108 87.9304ZM25.3316 90.736L25.8504 89.8812C26.4062 90.2185 26.9697 90.5446 27.5405 90.859L27.0579 91.7349C26.4749 91.4137 25.8993 91.0806 25.3316 90.736ZM29.7224 93.0952L30.1488 92.1906C30.7368 92.4678 31.3315 92.733 31.9326 92.986L31.5447 93.9077C30.9306 93.6493 30.3231 93.3783 29.7224 93.0952ZM34.3366 94.9801L34.6654 94.0357C35.2788 94.2493 35.8981 94.4505 36.5228 94.6389L36.2341 95.5963C35.5959 95.4038 34.9632 95.1983 34.3366 94.9801ZM39.1236 96.3687L39.3512 95.3949C39.9831 95.5426 40.6201 95.6774 41.2617 95.7991L41.0753 96.7816C40.4199 96.6573 39.7692 96.5196 39.1236 96.3687ZM44.0302 97.2461L44.1543 96.2539C44.7978 96.3344 45.4454 96.4018 46.0968 96.4558L46.0142 97.4524C45.3489 97.3972 44.6874 97.3284 44.0302 97.2461ZM49.0016 97.6067L49.0222 96.6069C49.3481 96.6136 49.6748 96.617 50.0023 96.617C50.3299 96.617 50.6566 96.6136 50.9825 96.6069L51.0031 97.6067C50.6703 97.6136 50.3367 97.617 50.0023 97.617C49.668 97.617 49.3344 97.6136 49.0016 97.6067ZM53.9905 97.4524L53.9079 96.4558C54.5593 96.4018 55.2069 96.3344 55.8504 96.2539L55.9745 97.2461C55.3173 97.3284 54.6558 97.3972 53.9905 97.4524ZM58.9294 96.7816L58.7431 95.7991C59.3847 95.6774 60.0216 95.5426 60.6536 95.3949L60.8811 96.3687C60.2355 96.5196 59.5848 96.6573 58.9294 96.7816ZM63.7706 95.5963L63.4819 94.6389C64.1066 94.4505 64.7259 94.2493 65.3393 94.0357L65.6681 94.9801C65.0415 95.1983 64.4088 95.4038 63.7706 95.5963ZM68.46 93.9077L68.0721 92.986C68.6732 92.733 69.2679 92.4678 69.8559 92.1906L70.2823 93.0952C69.6816 93.3783 69.0741 93.6493 68.46 93.9077ZM72.9468 91.7349L72.4642 90.859C73.035 90.5446 73.5985 90.2185 74.1543 89.8812L74.6731 90.736C74.1054 91.0806 73.5298 91.4137 72.9468 91.7349ZM77.1812 89.104L76.6097 88.2834C77.1443 87.9112 77.6708 87.528 78.1887 87.1343L78.7939 87.9304C78.2649 88.3325 77.7272 88.7239 77.1812 89.104ZM81.1179 86.0461L80.4642 85.2894C80.9569 84.8637 81.4407 84.4278 81.9151 83.9821L82.5998 84.711C82.1153 85.1661 81.6212 85.6113 81.1179 86.0461ZM84.7153 82.5954L83.9865 81.9108C84.4322 81.4363 84.8681 80.9526 85.2938 80.4598L86.0505 81.1135C85.6157 81.6168 85.1705 82.1109 84.7153 82.5954ZM87.9348 78.7895L87.1387 78.1843C87.5324 77.6664 87.9156 77.1399 88.2878 76.6053L89.1084 77.1768C88.7282 77.7228 88.3369 78.2605 87.9348 78.7895ZM90.7404 74.6688L89.8855 74.1499C90.2229 73.5941 90.549 73.0306 90.8634 72.4598L91.7393 72.9424C91.4181 73.5254 91.085 74.101 90.7404 74.6688ZM93.0995 70.2779L92.195 69.8515C92.4722 69.2635 92.7374 68.6688 92.9904 68.0677L93.9121 68.4556C93.6536 69.0697 93.3827 69.6772 93.0995 70.2779ZM94.9845 65.6637L94.0401 65.3349C94.2537 64.7215 94.4549 64.1022 94.6432 63.4775L95.6007 63.7662C95.4082 64.4044 95.2027 65.0371 94.9845 65.6637ZM96.3731 60.8767L95.3993 60.6491C95.547 60.0172 95.6818 59.3803 95.8035 58.7387L96.786 58.925C96.6617 59.5804 96.5239 60.2311 96.3731 60.8767ZM97.2505 55.9701L96.2582 55.846C96.3388 55.2025 96.4062 54.5549 96.4602 53.9035L97.4567 53.9861C97.4016 54.6514 97.3327 55.3129 97.2505 55.9701Z" fill="#5076FF"/>
</symbol>

<symbol id="interface"  viewBox="0 0 100 100" fill="none">
<path fill-rule="evenodd" clip-rule="evenodd" d="M75.2673 32.1551H24.7734C24.6207 32.1551 24.4969 32.2789 24.4969 32.4316V64.9575C24.4969 65.1102 24.6207 65.234 24.7734 65.234H75.2673C75.42 65.234 75.5438 65.1102 75.5438 64.9575V32.4316C75.5438 32.2789 75.42 32.1551 75.2673 32.1551ZM24.7734 30.7266C23.8317 30.7266 23.0684 31.4899 23.0684 32.4316V64.9575C23.0684 65.8992 23.8317 66.6625 24.7734 66.6625H75.2673C76.2089 66.6625 76.9723 65.8992 76.9723 64.9575V32.4316C76.9723 31.4899 76.2089 30.7266 75.2673 30.7266H24.7734Z" fill="#5076FF"/>
<path fill-rule="evenodd" clip-rule="evenodd" d="M41.4017 65.4971H58.1866L59.9627 71.4176H39.6255L41.4017 65.4971ZM42.4646 66.9256L41.5455 69.9891H58.0427L57.1236 66.9256H42.4646Z" fill="#5076FF"/>
<path fill-rule="evenodd" clip-rule="evenodd" d="M37.2941 71.7801L37.2163 73.4393H62.0726L61.9949 71.7801H37.2941ZM36.7444 70.3516C36.2891 70.3516 35.9141 70.7094 35.8928 71.1642L35.7611 73.9754C35.7383 74.4614 36.1262 74.8678 36.6127 74.8678H62.6763C63.1628 74.8678 63.5506 74.4614 63.5279 73.9754L63.3962 71.1642C63.3748 70.7094 62.9999 70.3516 62.5446 70.3516H36.7444Z" fill="#5076FF"/>
<path fill-rule="evenodd" clip-rule="evenodd" d="M27.56 35.0496C27.7125 35.0496 27.8362 34.9259 27.8362 34.7734C27.8362 34.6209 27.7125 34.4972 27.56 34.4972C27.4075 34.4972 27.2838 34.6209 27.2838 34.7734C27.2838 34.9259 27.4075 35.0496 27.56 35.0496ZM27.56 36.121C28.3043 36.121 28.9076 35.5176 28.9076 34.7734C28.9076 34.0291 28.3043 33.4258 27.56 33.4258C26.8157 33.4258 26.2124 34.0291 26.2124 34.7734C26.2124 35.5176 26.8157 36.121 27.56 36.121Z" fill="#5076FF"/>
<path fill-rule="evenodd" clip-rule="evenodd" d="M32.4999 35.0496C32.6525 35.0496 32.7761 34.9259 32.7761 34.7734C32.7761 34.6209 32.6525 34.4972 32.4999 34.4972C32.3474 34.4972 32.2238 34.6209 32.2238 34.7734C32.2238 34.9259 32.3474 35.0496 32.4999 35.0496ZM32.4999 36.121C33.2442 36.121 33.8475 35.5176 33.8475 34.7734C33.8475 34.0291 33.2442 33.4258 32.4999 33.4258C31.7557 33.4258 31.1523 34.0291 31.1523 34.7734C31.1523 35.5176 31.7557 36.121 32.4999 36.121Z" fill="#5076FF"/>
<path d="M27.5596 61.3725C27.5596 61.1646 27.7281 60.9961 27.9359 60.9961H72.1032C72.311 60.9961 72.4795 61.1646 72.4795 61.3725V61.3725C72.4795 61.5803 72.311 61.7488 72.1032 61.7488H27.9359C27.7281 61.7488 27.5596 61.5803 27.5596 61.3725V61.3725Z" fill="#5076FF"/>
<path d="M27.5596 59.1264C27.5596 58.9185 27.7281 58.75 27.9359 58.75H49.6432C49.8511 58.75 50.0196 58.9185 50.0196 59.1264V59.1264C50.0196 59.3342 49.8511 59.5027 49.6432 59.5027H27.9359C27.7281 59.5027 27.5596 59.3342 27.5596 59.1264V59.1264Z" fill="#5076FF"/>
<path d="M27.5596 56.8764C27.5596 56.6685 27.7281 56.5 27.9359 56.5H49.6432C49.8511 56.5 50.0196 56.6685 50.0196 56.8764V56.8764C50.0196 57.0842 49.8511 57.2527 49.6432 57.2527H27.9359C27.7281 57.2527 27.5596 57.0842 27.5596 56.8764V56.8764Z" fill="#5076FF"/>
<path d="M27.5596 54.6303C27.5596 54.4224 27.7281 54.2539 27.9359 54.2539H45.1512C45.3591 54.2539 45.5276 54.4224 45.5276 54.6303V54.6303C45.5276 54.8381 45.3591 55.0066 45.1512 55.0066H27.9359C27.7281 55.0066 27.5596 54.8381 27.5596 54.6303V54.6303Z" fill="#5076FF"/>
<path d="M27.5596 52.3881C27.5596 52.1802 27.7281 52.0117 27.9359 52.0117H36.1672C36.3751 52.0117 36.5436 52.1802 36.5436 52.3881V52.3881C36.5436 52.5959 36.3751 52.7644 36.1672 52.7644H27.9359C27.7281 52.7644 27.5596 52.5959 27.5596 52.3881V52.3881Z" fill="#5076FF"/>
<path fill-rule="evenodd" clip-rule="evenodd" d="M28.9881 39.7879V44.5672H46.345V39.7879H28.9881ZM28.4121 38.3594C27.9413 38.3594 27.5596 38.7411 27.5596 39.2119V45.1432C27.5596 45.6141 27.9413 45.9958 28.4121 45.9958H46.921C47.3919 45.9958 47.7736 45.6141 47.7736 45.1432V39.2119C47.7736 38.7411 47.3919 38.3594 46.921 38.3594H28.4121Z" fill="#5076FF"/>
<path fill-rule="evenodd" clip-rule="evenodd" d="M53.6937 39.7879V53.5512H71.0506V39.7879H53.6937ZM53.1177 38.3594C52.6468 38.3594 52.2651 38.7411 52.2651 39.2119V54.1272C52.2651 54.5981 52.6468 54.9798 53.1177 54.9798H71.6266C72.0974 54.9798 72.4791 54.5981 72.4791 54.1272V39.2119C72.4791 38.7411 72.0974 38.3594 71.6266 38.3594H53.1177Z" fill="#5076FF"/>
<path fill-rule="evenodd" clip-rule="evenodd" d="M97.6111 50.9987L96.6113 50.9781C96.618 50.6522 96.6214 50.3255 96.6214 49.998C96.6214 49.6704 96.618 49.3437 96.6113 49.0178L97.6111 48.9972C97.6179 49.33 97.6214 49.6636 97.6214 49.998C97.6214 50.3324 97.6179 50.6659 97.6111 50.9987ZM97.4567 46.0098L96.4602 46.0924C96.4062 45.441 96.3388 44.7934 96.2582 44.1499L97.2505 44.0258C97.3327 44.683 97.4016 45.3445 97.4567 46.0098ZM96.786 41.0709L95.8035 41.2572C95.6818 40.6156 95.547 39.9787 95.3993 39.3468L96.3731 39.1192C96.5239 39.7648 96.6617 40.4155 96.786 41.0709ZM95.6007 36.2297L94.6432 36.5184C94.4549 35.8937 94.2537 35.2744 94.0401 34.661L94.9845 34.3322C95.2027 34.9588 95.4082 35.5915 95.6007 36.2297ZM93.9121 31.5403L92.9904 31.9282C92.7374 31.3271 92.4722 30.7324 92.195 30.1444L93.0995 29.718C93.3827 30.3187 93.6536 30.9262 93.9121 31.5403ZM91.7393 27.0535L90.8634 27.5361C90.5489 26.9653 90.2229 26.4018 89.8855 25.846L90.7404 25.3272C91.085 25.8949 91.4181 26.4705 91.7393 27.0535ZM89.1084 22.8191L88.2878 23.3906C87.9156 22.856 87.5324 22.3295 87.1387 21.8116L87.9347 21.2064C88.3369 21.7354 88.7282 22.2731 89.1084 22.8191ZM86.0505 18.8824L85.2938 19.5361C84.8681 19.0434 84.4322 18.5596 83.9865 18.0852L84.7153 17.4005C85.1705 17.885 85.6157 18.3791 86.0505 18.8824ZM82.5998 15.285L81.9151 16.0138C81.4407 15.5681 80.9569 15.1322 80.4642 14.7065L81.1179 13.9498C81.6212 14.3846 82.1153 14.8298 82.5998 15.285ZM78.7939 12.0656C78.2649 11.6634 77.7272 11.2721 77.1812 10.8919L76.6097 11.7125C77.1443 12.0847 77.6707 12.4679 78.1887 12.8616L78.7939 12.0656ZM74.6731 9.25987L74.1543 10.1148C73.5984 9.7774 73.035 9.45135 72.4642 9.13692L72.9468 8.26104C73.5298 8.58223 74.1053 8.91528 74.6731 9.25987ZM70.2823 6.90076L69.8559 7.8053C69.2679 7.52813 68.6732 7.2629 68.0721 7.00991L68.46 6.08821C69.0741 6.34666 69.6816 6.61762 70.2823 6.90076ZM65.6681 5.01581L65.3393 5.96019C64.7259 5.74659 64.1066 5.54544 63.4818 5.35705L63.7705 4.39963C64.4088 4.59209 65.0415 4.79759 65.6681 5.01581ZM60.8811 3.62723L60.6535 4.60099C60.0216 4.45331 59.3846 4.31847 58.743 4.19679L58.9294 3.2143C59.5848 3.33861 60.2355 3.47635 60.8811 3.62723ZM55.9745 2.74979L55.8503 3.74205C55.2069 3.66154 54.5593 3.59414 53.9079 3.54013L53.9905 2.54355C54.6558 2.59871 55.3172 2.66755 55.9745 2.74979ZM51.0031 2.38921L50.9825 3.389C50.6566 3.38228 50.3299 3.37891 50.0023 3.37891C49.6748 3.37891 49.3481 3.38228 49.0222 3.389L49.0016 2.38921C49.3344 2.38235 49.6679 2.37891 50.0023 2.37891C50.3367 2.37891 50.6703 2.38235 51.0031 2.38921ZM46.0142 2.54355L46.0968 3.54013C45.4454 3.59414 44.7978 3.66154 44.1543 3.74206L44.0302 2.74979C44.6874 2.66756 45.3489 2.59871 46.0142 2.54355ZM41.0753 3.21431L41.2616 4.19679C40.62 4.31848 39.9831 4.45331 39.3511 4.60099L39.1236 3.62723C39.7692 3.47636 40.4199 3.33862 41.0753 3.21431ZM36.2341 4.39963L36.5228 5.35705C35.8981 5.54544 35.2788 5.74659 34.6654 5.9602L34.3366 5.01582C34.9632 4.79759 35.5959 4.5921 36.2341 4.39963ZM31.5447 6.08822L31.9326 7.00992C31.3315 7.2629 30.7368 7.52814 30.1488 7.80531L29.7224 6.90076C30.323 6.61762 30.9306 6.34667 31.5447 6.08822ZM27.0579 8.26105L27.5404 9.13693C26.9697 9.45136 26.4062 9.77741 25.8504 10.1148L25.3315 9.25988C25.8993 8.91529 26.4749 8.58224 27.0579 8.26105ZM22.8235 10.8919L23.3949 11.7125C22.8604 12.0848 22.3339 12.4679 21.816 12.8616L21.2108 12.0656C21.7398 11.6634 22.2775 11.2721 22.8235 10.8919ZM18.8868 13.9498L19.5405 14.7065C19.0477 15.1322 18.564 15.5681 18.0895 16.0138L17.4049 15.285C17.8894 14.8298 18.3835 14.3846 18.8868 13.9498ZM15.2894 17.4005L16.0182 18.0852C15.5725 18.5596 15.1366 19.0434 14.7109 19.5361L13.9542 18.8824C14.389 18.3791 14.8342 17.885 15.2894 17.4005ZM12.0699 21.2064L12.866 21.8116C12.4723 22.3296 12.0891 22.856 11.7169 23.3906L10.8962 22.8191C11.2764 22.2731 11.6678 21.7354 12.0699 21.2064ZM9.26426 25.3272L10.1191 25.846C9.78179 26.4019 9.45574 26.9653 9.14131 27.5361L8.26543 27.0535C8.58662 26.4705 8.91968 25.895 9.26426 25.3272ZM6.90515 29.718L7.80969 30.1444C7.53252 30.7324 7.26729 31.3271 7.0143 31.9282L6.0926 31.5403C6.35105 30.9262 6.62201 30.3187 6.90515 29.718ZM5.0202 34.3322L5.96458 34.661C5.75098 35.2745 5.54983 35.8937 5.36144 36.5185L4.40402 36.2298C4.59648 35.5915 4.80198 34.9589 5.0202 34.3322ZM3.63162 39.1192L4.60538 39.3468C4.4577 39.9787 4.32287 40.6157 4.20118 41.2573L3.2187 41.0709C3.34301 40.4155 3.48074 39.7648 3.63162 39.1192ZM2.75419 44.0258L3.74645 44.15C3.66594 44.7934 3.59853 45.441 3.54452 46.0924L2.54794 46.0098C2.60311 45.3445 2.67195 44.6831 2.75419 44.0258ZM2.39361 48.9972C2.38675 49.33 2.3833 49.6636 2.3833 49.998C2.3833 50.3324 2.38675 50.666 2.39361 50.9987L3.3934 50.9781C3.38668 50.6522 3.3833 50.3255 3.3833 49.998C3.3833 49.6704 3.38668 49.3437 3.3934 49.0178L2.39361 48.9972ZM2.54794 53.9862L3.54452 53.9035C3.59854 54.5549 3.66594 55.2025 3.74645 55.846L2.75419 55.9701C2.67195 55.3129 2.60311 54.6515 2.54794 53.9862ZM3.2187 58.925L4.20119 58.7387C4.32287 59.3803 4.4577 60.0172 4.60539 60.6492L3.63162 60.8767C3.48075 60.2311 3.34301 59.5804 3.2187 58.925ZM4.40403 63.7662L5.36145 63.4775C5.54984 64.1022 5.75098 64.7215 5.96459 65.3349L5.02021 65.6637C4.80199 65.0371 4.59649 64.4044 4.40403 63.7662ZM6.09261 68.4556L7.01431 68.0677C7.2673 68.6688 7.53253 69.2635 7.8097 69.8515L6.90516 70.2779C6.62201 69.6773 6.35106 69.0697 6.09261 68.4556ZM8.26544 72.9424L9.14132 72.4599C9.45575 73.0306 9.7818 73.5941 10.1191 74.1499L9.26427 74.6688C8.91968 74.101 8.58663 73.5254 8.26544 72.9424ZM10.8963 77.1768L11.7169 76.6054C12.0891 77.1399 12.4723 77.6664 12.866 78.1843L12.0699 78.7895C11.6678 78.2605 11.2765 77.7228 10.8963 77.1768ZM13.9542 81.1135L14.7109 80.4598C15.1366 80.9526 15.5725 81.4363 16.0182 81.9108L15.2894 82.5954C14.8342 82.1109 14.389 81.6168 13.9542 81.1135ZM17.4049 84.711L18.0896 83.9821C18.564 84.4278 19.0478 84.8637 19.5405 85.2894L18.8868 86.0461C18.3835 85.6113 17.8894 85.1662 17.4049 84.711ZM21.2108 87.9304L21.816 87.1343C22.3339 87.528 22.8604 87.9112 23.395 88.2834L22.8235 89.1041C22.2775 88.7239 21.7398 88.3325 21.2108 87.9304ZM25.3316 90.736L25.8504 89.8812C26.4062 90.2185 26.9697 90.5446 27.5405 90.859L27.0579 91.7349C26.4749 91.4137 25.8993 91.0806 25.3316 90.736ZM29.7224 93.0952L30.1488 92.1906C30.7368 92.4678 31.3315 92.733 31.9326 92.986L31.5447 93.9077C30.9306 93.6493 30.3231 93.3783 29.7224 93.0952ZM34.3366 94.9801L34.6654 94.0357C35.2788 94.2493 35.8981 94.4505 36.5228 94.6389L36.2341 95.5963C35.5959 95.4038 34.9632 95.1983 34.3366 94.9801ZM39.1236 96.3687L39.3512 95.3949C39.9831 95.5426 40.6201 95.6774 41.2617 95.7991L41.0753 96.7816C40.4199 96.6573 39.7692 96.5196 39.1236 96.3687ZM44.0302 97.2461L44.1543 96.2539C44.7978 96.3344 45.4454 96.4018 46.0968 96.4558L46.0142 97.4524C45.3489 97.3972 44.6874 97.3284 44.0302 97.2461ZM49.0016 97.6067L49.0222 96.6069C49.3481 96.6136 49.6748 96.617 50.0023 96.617C50.3299 96.617 50.6566 96.6136 50.9825 96.6069L51.0031 97.6067C50.6703 97.6136 50.3367 97.617 50.0023 97.617C49.668 97.617 49.3344 97.6136 49.0016 97.6067ZM53.9905 97.4524L53.9079 96.4558C54.5593 96.4018 55.2069 96.3344 55.8504 96.2539L55.9745 97.2461C55.3173 97.3284 54.6558 97.3972 53.9905 97.4524ZM58.9294 96.7816L58.7431 95.7991C59.3847 95.6774 60.0216 95.5426 60.6536 95.3949L60.8811 96.3687C60.2355 96.5196 59.5848 96.6573 58.9294 96.7816ZM63.7706 95.5963L63.4819 94.6389C64.1066 94.4505 64.7259 94.2493 65.3393 94.0357L65.6681 94.9801C65.0415 95.1983 64.4088 95.4038 63.7706 95.5963ZM68.46 93.9077L68.0721 92.986C68.6732 92.733 69.2679 92.4678 69.8559 92.1906L70.2823 93.0952C69.6816 93.3783 69.0741 93.6493 68.46 93.9077ZM72.9468 91.7349L72.4642 90.859C73.035 90.5446 73.5985 90.2185 74.1543 89.8812L74.6731 90.736C74.1054 91.0806 73.5298 91.4137 72.9468 91.7349ZM77.1812 89.104L76.6097 88.2834C77.1443 87.9112 77.6708 87.528 78.1887 87.1343L78.7939 87.9304C78.2649 88.3325 77.7272 88.7239 77.1812 89.104ZM81.1179 86.0461L80.4642 85.2894C80.9569 84.8637 81.4407 84.4278 81.9151 83.9821L82.5998 84.711C82.1153 85.1661 81.6212 85.6113 81.1179 86.0461ZM84.7153 82.5954L83.9865 81.9108C84.4322 81.4363 84.8681 80.9526 85.2938 80.4598L86.0505 81.1135C85.6157 81.6168 85.1705 82.1109 84.7153 82.5954ZM87.9348 78.7895L87.1387 78.1843C87.5324 77.6664 87.9156 77.1399 88.2878 76.6053L89.1084 77.1768C88.7282 77.7228 88.3369 78.2605 87.9348 78.7895ZM90.7404 74.6688L89.8855 74.1499C90.2229 73.5941 90.549 73.0306 90.8634 72.4598L91.7393 72.9424C91.4181 73.5254 91.085 74.101 90.7404 74.6688ZM93.0995 70.2779L92.195 69.8515C92.4722 69.2635 92.7374 68.6688 92.9904 68.0677L93.9121 68.4556C93.6536 69.0697 93.3827 69.6772 93.0995 70.2779ZM94.9845 65.6637L94.0401 65.3349C94.2537 64.7215 94.4549 64.1022 94.6432 63.4775L95.6007 63.7662C95.4082 64.4044 95.2027 65.0371 94.9845 65.6637ZM96.3731 60.8767L95.3993 60.6491C95.547 60.0172 95.6818 59.3803 95.8035 58.7387L96.786 58.925C96.6617 59.5804 96.5239 60.2311 96.3731 60.8767ZM97.2505 55.9701L96.2582 55.846C96.3388 55.2025 96.4062 54.5549 96.4602 53.9035L97.4567 53.9861C97.4016 54.6514 97.3327 55.3129 97.2505 55.9701Z" fill="#5076FF"/>
</symbol>

<symbol id="lock"  viewBox="0 0 100 100" fill="none">
<path fill-rule="evenodd" clip-rule="evenodd" d="M97.6111 50.9987L96.6113 50.9781C96.618 50.6522 96.6214 50.3255 96.6214 49.998C96.6214 49.6704 96.618 49.3437 96.6113 49.0178L97.6111 48.9972C97.6179 49.33 97.6214 49.6636 97.6214 49.998C97.6214 50.3324 97.6179 50.6659 97.6111 50.9987ZM97.4567 46.0098L96.4602 46.0924C96.4062 45.441 96.3388 44.7934 96.2582 44.1499L97.2505 44.0258C97.3327 44.683 97.4016 45.3445 97.4567 46.0098ZM96.786 41.0709L95.8035 41.2572C95.6818 40.6156 95.547 39.9787 95.3993 39.3468L96.3731 39.1192C96.5239 39.7648 96.6617 40.4155 96.786 41.0709ZM95.6007 36.2297L94.6432 36.5184C94.4549 35.8937 94.2537 35.2744 94.0401 34.661L94.9845 34.3322C95.2027 34.9588 95.4082 35.5915 95.6007 36.2297ZM93.9121 31.5403L92.9904 31.9282C92.7374 31.3271 92.4722 30.7324 92.195 30.1444L93.0995 29.718C93.3827 30.3187 93.6536 30.9262 93.9121 31.5403ZM91.7393 27.0535L90.8634 27.5361C90.5489 26.9653 90.2229 26.4018 89.8855 25.846L90.7404 25.3272C91.085 25.8949 91.4181 26.4705 91.7393 27.0535ZM89.1084 22.8191L88.2878 23.3906C87.9156 22.856 87.5324 22.3295 87.1387 21.8116L87.9347 21.2064C88.3369 21.7354 88.7282 22.2731 89.1084 22.8191ZM86.0505 18.8824L85.2938 19.5361C84.8681 19.0434 84.4322 18.5596 83.9865 18.0852L84.7153 17.4005C85.1705 17.885 85.6157 18.3791 86.0505 18.8824ZM82.5998 15.285L81.9151 16.0138C81.4407 15.5681 80.9569 15.1322 80.4642 14.7065L81.1179 13.9498C81.6212 14.3846 82.1153 14.8298 82.5998 15.285ZM78.7939 12.0656C78.2649 11.6634 77.7272 11.2721 77.1812 10.8919L76.6097 11.7125C77.1443 12.0847 77.6707 12.4679 78.1887 12.8616L78.7939 12.0656ZM74.6731 9.25987L74.1543 10.1148C73.5984 9.7774 73.035 9.45135 72.4642 9.13692L72.9468 8.26104C73.5298 8.58223 74.1053 8.91528 74.6731 9.25987ZM70.2823 6.90076L69.8559 7.8053C69.2679 7.52813 68.6732 7.2629 68.0721 7.00991L68.46 6.08821C69.0741 6.34666 69.6816 6.61762 70.2823 6.90076ZM65.6681 5.01581L65.3393 5.96019C64.7259 5.74659 64.1066 5.54544 63.4818 5.35705L63.7705 4.39963C64.4088 4.59209 65.0415 4.79759 65.6681 5.01581ZM60.8811 3.62723L60.6535 4.60099C60.0216 4.45331 59.3846 4.31847 58.743 4.19679L58.9294 3.2143C59.5848 3.33861 60.2355 3.47635 60.8811 3.62723ZM55.9745 2.74979L55.8503 3.74205C55.2069 3.66154 54.5593 3.59414 53.9079 3.54013L53.9905 2.54355C54.6558 2.59871 55.3172 2.66755 55.9745 2.74979ZM51.0031 2.38921L50.9825 3.389C50.6566 3.38228 50.3299 3.37891 50.0023 3.37891C49.6748 3.37891 49.3481 3.38228 49.0222 3.389L49.0016 2.38921C49.3344 2.38235 49.6679 2.37891 50.0023 2.37891C50.3367 2.37891 50.6703 2.38235 51.0031 2.38921ZM46.0142 2.54355L46.0968 3.54013C45.4454 3.59414 44.7978 3.66154 44.1543 3.74206L44.0302 2.74979C44.6874 2.66756 45.3489 2.59871 46.0142 2.54355ZM41.0753 3.21431L41.2616 4.19679C40.62 4.31848 39.9831 4.45331 39.3511 4.60099L39.1236 3.62723C39.7692 3.47636 40.4199 3.33862 41.0753 3.21431ZM36.2341 4.39963L36.5228 5.35705C35.8981 5.54544 35.2788 5.74659 34.6654 5.9602L34.3366 5.01582C34.9632 4.79759 35.5959 4.5921 36.2341 4.39963ZM31.5447 6.08822L31.9326 7.00992C31.3315 7.2629 30.7368 7.52814 30.1488 7.80531L29.7224 6.90076C30.323 6.61762 30.9306 6.34667 31.5447 6.08822ZM27.0579 8.26105L27.5404 9.13693C26.9697 9.45136 26.4062 9.77741 25.8504 10.1148L25.3315 9.25988C25.8993 8.91529 26.4749 8.58224 27.0579 8.26105ZM22.8235 10.8919L23.3949 11.7125C22.8604 12.0848 22.3339 12.4679 21.816 12.8616L21.2108 12.0656C21.7398 11.6634 22.2775 11.2721 22.8235 10.8919ZM18.8868 13.9498L19.5405 14.7065C19.0477 15.1322 18.564 15.5681 18.0895 16.0138L17.4049 15.285C17.8894 14.8298 18.3835 14.3846 18.8868 13.9498ZM15.2894 17.4005L16.0182 18.0852C15.5725 18.5596 15.1366 19.0434 14.7109 19.5361L13.9542 18.8824C14.389 18.3791 14.8342 17.885 15.2894 17.4005ZM12.0699 21.2064L12.866 21.8116C12.4723 22.3296 12.0891 22.856 11.7169 23.3906L10.8962 22.8191C11.2764 22.2731 11.6678 21.7354 12.0699 21.2064ZM9.26426 25.3272L10.1191 25.846C9.78179 26.4019 9.45574 26.9653 9.14131 27.5361L8.26543 27.0535C8.58662 26.4705 8.91968 25.895 9.26426 25.3272ZM6.90515 29.718L7.80969 30.1444C7.53252 30.7324 7.26729 31.3271 7.0143 31.9282L6.0926 31.5403C6.35105 30.9262 6.62201 30.3187 6.90515 29.718ZM5.0202 34.3322L5.96458 34.661C5.75098 35.2745 5.54983 35.8937 5.36144 36.5185L4.40402 36.2298C4.59648 35.5915 4.80198 34.9589 5.0202 34.3322ZM3.63162 39.1192L4.60538 39.3468C4.4577 39.9787 4.32287 40.6157 4.20118 41.2573L3.2187 41.0709C3.34301 40.4155 3.48074 39.7648 3.63162 39.1192ZM2.75419 44.0258L3.74645 44.15C3.66594 44.7934 3.59853 45.441 3.54452 46.0924L2.54794 46.0098C2.60311 45.3445 2.67195 44.6831 2.75419 44.0258ZM2.39361 48.9972C2.38675 49.33 2.3833 49.6636 2.3833 49.998C2.3833 50.3324 2.38675 50.666 2.39361 50.9987L3.3934 50.9781C3.38668 50.6522 3.3833 50.3255 3.3833 49.998C3.3833 49.6704 3.38668 49.3437 3.3934 49.0178L2.39361 48.9972ZM2.54794 53.9862L3.54452 53.9035C3.59854 54.5549 3.66594 55.2025 3.74645 55.846L2.75419 55.9701C2.67195 55.3129 2.60311 54.6515 2.54794 53.9862ZM3.2187 58.925L4.20119 58.7387C4.32287 59.3803 4.4577 60.0172 4.60539 60.6492L3.63162 60.8767C3.48075 60.2311 3.34301 59.5804 3.2187 58.925ZM4.40403 63.7662L5.36145 63.4775C5.54984 64.1022 5.75098 64.7215 5.96459 65.3349L5.02021 65.6637C4.80199 65.0371 4.59649 64.4044 4.40403 63.7662ZM6.09261 68.4556L7.01431 68.0677C7.2673 68.6688 7.53253 69.2635 7.8097 69.8515L6.90516 70.2779C6.62201 69.6773 6.35106 69.0697 6.09261 68.4556ZM8.26544 72.9424L9.14132 72.4599C9.45575 73.0306 9.7818 73.5941 10.1191 74.1499L9.26427 74.6688C8.91968 74.101 8.58663 73.5254 8.26544 72.9424ZM10.8963 77.1768L11.7169 76.6054C12.0891 77.1399 12.4723 77.6664 12.866 78.1843L12.0699 78.7895C11.6678 78.2605 11.2765 77.7228 10.8963 77.1768ZM13.9542 81.1135L14.7109 80.4598C15.1366 80.9526 15.5725 81.4363 16.0182 81.9108L15.2894 82.5954C14.8342 82.1109 14.389 81.6168 13.9542 81.1135ZM17.4049 84.711L18.0896 83.9821C18.564 84.4278 19.0478 84.8637 19.5405 85.2894L18.8868 86.0461C18.3835 85.6113 17.8894 85.1662 17.4049 84.711ZM21.2108 87.9304L21.816 87.1343C22.3339 87.528 22.8604 87.9112 23.395 88.2834L22.8235 89.1041C22.2775 88.7239 21.7398 88.3325 21.2108 87.9304ZM25.3316 90.736L25.8504 89.8812C26.4062 90.2185 26.9697 90.5446 27.5405 90.859L27.0579 91.7349C26.4749 91.4137 25.8993 91.0806 25.3316 90.736ZM29.7224 93.0952L30.1488 92.1906C30.7368 92.4678 31.3315 92.733 31.9326 92.986L31.5447 93.9077C30.9306 93.6493 30.3231 93.3783 29.7224 93.0952ZM34.3366 94.9801L34.6654 94.0357C35.2788 94.2493 35.8981 94.4505 36.5228 94.6389L36.2341 95.5963C35.5959 95.4038 34.9632 95.1983 34.3366 94.9801ZM39.1236 96.3687L39.3512 95.3949C39.9831 95.5426 40.6201 95.6774 41.2617 95.7991L41.0753 96.7816C40.4199 96.6573 39.7692 96.5196 39.1236 96.3687ZM44.0302 97.2461L44.1543 96.2539C44.7978 96.3344 45.4454 96.4018 46.0968 96.4558L46.0142 97.4524C45.3489 97.3972 44.6874 97.3284 44.0302 97.2461ZM49.0016 97.6067L49.0222 96.6069C49.3481 96.6136 49.6748 96.617 50.0023 96.617C50.3299 96.617 50.6566 96.6136 50.9825 96.6069L51.0031 97.6067C50.6703 97.6136 50.3367 97.617 50.0023 97.617C49.668 97.617 49.3344 97.6136 49.0016 97.6067ZM53.9905 97.4524L53.9079 96.4558C54.5593 96.4018 55.2069 96.3344 55.8504 96.2539L55.9745 97.2461C55.3173 97.3284 54.6558 97.3972 53.9905 97.4524ZM58.9294 96.7816L58.7431 95.7991C59.3847 95.6774 60.0216 95.5426 60.6536 95.3949L60.8811 96.3687C60.2355 96.5196 59.5848 96.6573 58.9294 96.7816ZM63.7706 95.5963L63.4819 94.6389C64.1066 94.4505 64.7259 94.2493 65.3393 94.0357L65.6681 94.9801C65.0415 95.1983 64.4088 95.4038 63.7706 95.5963ZM68.46 93.9077L68.0721 92.986C68.6732 92.733 69.2679 92.4678 69.8559 92.1906L70.2823 93.0952C69.6816 93.3783 69.0741 93.6493 68.46 93.9077ZM72.9468 91.7349L72.4642 90.859C73.035 90.5446 73.5985 90.2185 74.1543 89.8812L74.6731 90.736C74.1054 91.0806 73.5298 91.4137 72.9468 91.7349ZM77.1812 89.104L76.6097 88.2834C77.1443 87.9112 77.6708 87.528 78.1887 87.1343L78.7939 87.9304C78.2649 88.3325 77.7272 88.7239 77.1812 89.104ZM81.1179 86.0461L80.4642 85.2894C80.9569 84.8637 81.4407 84.4278 81.9151 83.9821L82.5998 84.711C82.1153 85.1661 81.6212 85.6113 81.1179 86.0461ZM84.7153 82.5954L83.9865 81.9108C84.4322 81.4363 84.8681 80.9526 85.2938 80.4598L86.0505 81.1135C85.6157 81.6168 85.1705 82.1109 84.7153 82.5954ZM87.9348 78.7895L87.1387 78.1843C87.5324 77.6664 87.9156 77.1399 88.2878 76.6053L89.1084 77.1768C88.7282 77.7228 88.3369 78.2605 87.9348 78.7895ZM90.7404 74.6688L89.8855 74.1499C90.2229 73.5941 90.549 73.0306 90.8634 72.4598L91.7393 72.9424C91.4181 73.5254 91.085 74.101 90.7404 74.6688ZM93.0995 70.2779L92.195 69.8515C92.4722 69.2635 92.7374 68.6688 92.9904 68.0677L93.9121 68.4556C93.6536 69.0697 93.3827 69.6772 93.0995 70.2779ZM94.9845 65.6637L94.0401 65.3349C94.2537 64.7215 94.4549 64.1022 94.6432 63.4775L95.6007 63.7662C95.4082 64.4044 95.2027 65.0371 94.9845 65.6637ZM96.3731 60.8767L95.3993 60.6491C95.547 60.0172 95.6818 59.3803 95.8035 58.7387L96.786 58.925C96.6617 59.5804 96.5239 60.2311 96.3731 60.8767ZM97.2505 55.9701L96.2582 55.846C96.3388 55.2025 96.4062 54.5549 96.4602 53.9035L97.4567 53.9861C97.4016 54.6514 97.3327 55.3129 97.2505 55.9701Z" fill="#5076FF"/>
<path d="M64.8044 45.2598V36.4121C64.8281 32.4087 63.2291 28.5592 60.3746 25.7521C57.6149 23.0042 54.0024 21.5 50.1766 21.5C50.1174 21.5 50.0463 21.5 49.9871 21.5C41.8263 21.5118 35.1935 28.1921 35.1935 36.4121V45.2598C32.114 45.627 29.8635 48.2091 29.8635 51.336V71.2108C29.8635 74.5865 32.564 77.3699 35.9397 77.3699H64.0701C67.4457 77.3699 70.1462 74.5865 70.1462 71.2108V51.336C70.1344 48.2209 67.884 45.627 64.8044 45.2598ZM37.5505 36.4121H37.5624C37.5624 29.495 43.1411 23.8333 49.999 23.8333H50.0108C53.268 23.8215 56.3949 25.1125 58.7046 27.4103C61.109 29.7911 62.4474 33.0364 62.4237 36.4121V45.2717H59.818V36.4121C59.8416 33.7234 58.7756 31.1413 56.8687 29.2462C55.0684 27.4459 52.6284 26.4273 50.0819 26.4273H50.0108C44.5624 26.4273 40.1563 30.9044 40.1563 36.4002V45.2717H37.5505V36.4121ZM57.4609 36.4121V45.2717H42.537V36.4121C42.537 32.2192 45.8771 28.808 50.0227 28.808H50.0937C52.0125 28.808 53.8602 29.5779 55.2223 30.94C56.6673 32.385 57.4846 34.363 57.4609 36.4121ZM67.884 71.2464C67.884 73.3191 66.2021 75.001 64.1293 75.001H35.9871C33.9143 75.001 32.2324 73.3191 32.2324 71.2464V51.3952C32.2324 49.3224 33.9143 47.6405 35.9871 47.6405H64.1293C66.2021 47.6405 67.884 49.3224 67.884 51.3952V71.2464Z" fill="#5076FF"/>
<path d="M54.0751 60.5875C53.554 58.7516 51.8839 57.4961 49.977 57.4961C47.62 57.4961 45.7012 59.403 45.7012 61.7719C45.7012 63.6789 46.9567 65.3489 48.7925 65.8701V69.1865C48.7925 69.8379 49.3255 70.3709 49.977 70.3709C50.6284 70.3709 51.1614 69.8379 51.1614 69.1865V65.8701C53.4237 65.2186 54.7384 62.8497 54.0751 60.5875ZM49.977 63.667C48.9228 63.667 48.07 62.8142 48.07 61.7601C48.07 60.7059 48.9228 59.8531 49.977 59.8531C51.0311 59.8531 51.8839 60.7059 51.8839 61.7601C51.8839 62.8142 51.0311 63.667 49.977 63.667Z" fill="#5076FF"/>
</symbol>

<symbol id="marker-white" width="14" height="14" viewBox="0 0 14 14" fill="none">
<path d="M2.00011 12L7.55566 7L2.00011 2" stroke="white" stroke-width="1.5" stroke-linecap="square"/>
<path d="M6.44444 12L12 7L6.44444 2" stroke="white" stroke-width="1.5" stroke-linecap="square"/>
</symbol>

<symbol id="marker-blue" width="14" height="14" viewBox="0 0 14 14" fill="none">
<path d="M2.00011 2L7.55566 7L2.00011 12" stroke="#5076FF" stroke-width="1.5" stroke-linecap="square"/>
<path d="M6.4442 2L11.9998 7L6.4442 12" stroke="#5076FF" stroke-width="1.5" stroke-linecap="square"/>
</symbol>

<symbol id="logo" width="41" height="48" viewBox="0 0 41 48" fill="none">
<path d="M16.8249 2.83218C19.2155 1.50385 22.1225 1.50386 24.5131 2.83219L32.8773 7.47968C35.3896 8.87564 36.9477 11.5239 36.9477 14.3979V23.1751C36.9477 26.0492 35.3896 28.6974 32.8773 30.0934L24.5131 34.7409C22.1225 36.0692 19.2155 36.0692 16.8249 34.7409L8.46079 30.0934C5.94847 28.6974 4.39038 26.0492 4.39038 23.1751V14.3979C4.39038 11.5239 5.94848 8.87564 8.46079 7.47968L16.8249 2.83218Z" fill="#5076FF"/>
<path d="M18.8554 11.259C19.9837 10.6324 21.3555 10.6324 22.4838 11.259L26.4332 13.452C27.62 14.111 28.3561 15.3617 28.3561 16.7192V20.8567C28.3561 22.2142 27.62 23.4649 26.4332 24.1239L22.4838 26.3169C21.3555 26.9434 19.9837 26.9434 18.8554 26.3169L14.906 24.1239C13.7193 23.4649 12.9832 22.2142 12.9832 20.8567V16.7192C12.9832 15.3617 13.7193 14.111 14.906 13.452L18.8554 11.259Z" fill="white"/>
<path d="M6.09833 39.7716V47.0625H4.76688L1.59489 42.4736H1.54149V47.0625H0V39.7716H1.35281L4.49988 44.3569H4.56396V39.7716H6.09833Z" fill="#1D1D1D"/>
<path d="M8.68915 39.7716L10.4514 45.311H10.519L12.2848 39.7716H13.9936L11.4802 47.0625H9.49372L6.97677 39.7716H8.68915Z" fill="#1D1D1D"/>
<path d="M16.4126 39.7716V47.0625H14.8711V39.7716H16.4126Z" fill="#1D1D1D"/>
<path d="M21.6361 41.8684C21.6076 41.5812 21.4854 41.3581 21.2694 41.1991C21.0534 41.0401 20.7603 40.9606 20.3901 40.9606C20.1385 40.9606 19.9261 40.9962 19.7528 41.0674C19.5796 41.1362 19.4467 41.2324 19.3541 41.3558C19.2639 41.4792 19.2188 41.6192 19.2188 41.7759C19.2141 41.9064 19.2414 42.0203 19.3007 42.1176C19.3624 42.2149 19.4467 42.2992 19.5535 42.3704C19.6603 42.4392 19.7837 42.4997 19.9237 42.5519C20.0637 42.6018 20.2133 42.6445 20.3723 42.6801L21.0273 42.8367C21.3454 42.9079 21.6373 43.0029 21.9031 43.1215C22.1689 43.2402 22.3991 43.3862 22.5937 43.5594C22.7884 43.7327 22.9391 43.9368 23.0459 44.1718C23.155 44.4067 23.2108 44.6761 23.2132 44.9799C23.2108 45.4261 23.0969 45.8129 22.8714 46.1405C22.6483 46.4656 22.3256 46.7184 21.9031 46.8987C21.483 47.0767 20.9763 47.1657 20.383 47.1657C19.7944 47.1657 19.2817 47.0756 18.845 46.8952C18.4107 46.7148 18.0713 46.4478 17.8269 46.0942C17.5848 45.7382 17.4578 45.2979 17.4459 44.7734H18.9376C18.9542 45.0179 19.0242 45.222 19.1476 45.3857C19.2734 45.5471 19.4407 45.6693 19.6496 45.7524C19.8608 45.8331 20.0993 45.8735 20.3652 45.8735C20.6262 45.8735 20.8529 45.8355 21.0451 45.7595C21.2397 45.6836 21.3905 45.578 21.4973 45.4427C21.6041 45.3074 21.6575 45.152 21.6575 44.9763C21.6575 44.8126 21.6088 44.6749 21.5115 44.5634C21.4166 44.4518 21.2765 44.3569 21.0914 44.2786C20.9087 44.2002 20.6844 44.129 20.4186 44.065L19.6247 43.8656C19.01 43.7161 18.5246 43.4823 18.1686 43.1643C17.8126 42.8462 17.6358 42.4178 17.6382 41.8791C17.6358 41.4377 17.7533 41.052 17.9906 40.7221C18.2303 40.3922 18.559 40.1347 18.9768 39.9496C19.3945 39.7644 19.8691 39.6719 20.4008 39.6719C20.9419 39.6719 21.4142 39.7644 21.8177 39.9496C22.2235 40.1347 22.5392 40.3922 22.7646 40.7221C22.9901 41.052 23.1064 41.4341 23.1135 41.8684H21.6361Z" fill="#1D1D1D"/>
<path d="M25.7915 39.7716V47.0625H24.25V39.7716H25.7915Z" fill="#1D1D1D"/>
<path d="M33.7598 43.417C33.7598 44.2121 33.6091 44.8885 33.3077 45.4462C33.0086 46.004 32.6004 46.43 32.083 46.7243C31.568 47.0162 30.9889 47.1622 30.3457 47.1622C29.6978 47.1622 29.1163 47.015 28.6013 46.7207C28.0863 46.4264 27.6792 46.0004 27.3802 45.4427C27.0812 44.8849 26.9316 44.2097 26.9316 43.417C26.9316 42.622 27.0812 41.9455 27.3802 41.3878C27.6792 40.8301 28.0863 40.4052 28.6013 40.1133C29.1163 39.819 29.6978 39.6719 30.3457 39.6719C30.9889 39.6719 31.568 39.819 32.083 40.1133C32.6004 40.4052 33.0086 40.8301 33.3077 41.3878C33.6091 41.9455 33.7598 42.622 33.7598 43.417ZM32.1969 43.417C32.1969 42.902 32.1198 42.4677 31.9655 42.1141C31.8136 41.7604 31.5988 41.4922 31.3212 41.3095C31.0435 41.1267 30.7183 41.0354 30.3457 41.0354C29.9731 41.0354 29.6479 41.1267 29.3703 41.3095C29.0926 41.4922 28.8766 41.7604 28.7223 42.1141C28.5704 42.4677 28.4945 42.902 28.4945 43.417C28.4945 43.932 28.5704 44.3664 28.7223 44.72C28.8766 45.0736 29.0926 45.3418 29.3703 45.5246C29.6479 45.7073 29.9731 45.7987 30.3457 45.7987C30.7183 45.7987 31.0435 45.7073 31.3212 45.5246C31.5988 45.3418 31.8136 45.0736 31.9655 44.72C32.1198 44.3664 32.1969 43.932 32.1969 43.417Z" fill="#1D1D1D"/>
<path d="M41 39.7716V47.0625H39.6685L36.4966 42.4736H36.4432V47.0625H34.9017V39.7716H36.2545L39.4015 44.3569H39.4656V39.7716H41Z" fill="#1D1D1D"/>
</symbol>

<symbol id="arrow" width="12" height="32" viewBox="0 0 12 32" fill="none">
<path d="M6.75 1C6.75 0.585786 6.41421 0.25 6 0.25C5.58579 0.25 5.25 0.585786 5.25 1H6.75ZM5.46967 31.5303C5.76256 31.8232 6.23744 31.8232 6.53033 31.5303L11.3033 26.7574C11.5962 26.4645 11.5962 25.9896 11.3033 25.6967C11.0104 25.4038 10.5355 25.4038 10.2426 25.6967L6 29.9393L1.75736 25.6967C1.46447 25.4038 0.989593 25.4038 0.696699 25.6967C0.403806 25.9896 0.403806 26.4645 0.696699 26.7574L5.46967 31.5303ZM5.25 1V31H6.75V1H5.25Z" fill="#102134"/>
</symbol>

<symbol id="burger" width="32" height="30" viewBox="0 0 32 30" fill="none">
<path fill-rule="evenodd" clip-rule="evenodd" d="M0 9.5C0 8.94772 0.447715 8.5 1 8.5H31C31.5523 8.5 32 8.94772 32 9.5C32 10.0523 31.5523 10.5 31 10.5H1C0.447715 10.5 0 10.0523 0 9.5Z" fill="#102134"/>
<path fill-rule="evenodd" clip-rule="evenodd" d="M0 20.5C0 19.9477 0.447715 19.5 1 19.5H31C31.5523 19.5 32 19.9477 32 20.5C32 21.0523 31.5523 21.5 31 21.5H1C0.447715 21.5 0 21.0523 0 20.5Z" fill="#102134"/>
</symbol>

<symbol id="close" width="32" height="30" viewBox="0 0 32 30" fill="none">
<path fill-rule="evenodd" clip-rule="evenodd" d="M3.9073 26.9493C3.51678 26.5588 3.51678 25.9256 3.9073 25.5351L26.5347 2.90766C26.9252 2.51714 27.5584 2.51714 27.9489 2.90766C28.3395 3.29819 28.3395 3.93135 27.9489 4.32188L5.32152 26.9493C4.93099 27.3398 4.29783 27.3398 3.9073 26.9493Z" fill="#102134"/>
<path fill-rule="evenodd" clip-rule="evenodd" d="M27.9491 26.9493C28.3397 26.5588 28.3397 25.9256 27.9491 25.5351L5.32173 2.90766C4.9312 2.51714 4.29804 2.51714 3.90751 2.90766C3.51699 3.29819 3.51699 3.93135 3.90751 4.32188L26.5349 26.9493C26.9255 27.3398 27.5586 27.3398 27.9491 26.9493Z" fill="#102134"/>
</symbol>

</svg>